<?xml version="1.0" encoding="UTF-8"?>
<svg id="Layer_2" data-name="Layer 2" xmlns="http://www.w3.org/2000/svg" viewBox="0 0 491.62 162.6">
  <defs>
    <style>
      .cls-1 {
        fill: #343833;
      }

      .cls-1, .cls-2 {
        stroke-width: 0px;
      }

      .cls-2 {
        fill: #c41e3a;
      }
    </style>
  </defs>
  <g id="Layer_1-2" data-name="Layer 1">
    <g>
      <path class="cls-2" d="M0,38.37h.83c0,8.83,6.69,15.25,16.42,15.25s14.01-5.04,14.01-11.8c0-16.49-28.84-7.04-28.84-26.36C2.42,7.66,8.9.69,19.74.69c9.25,0,13.66,4.83,13.66,10.56h-.83c0-5.11-4.14-9.73-12.83-9.73-7.87,0-12.42,3.59-12.42,8.01,0,12.83,29.74,5.66,29.74,24.98,0,10.21-6.49,19.87-19.74,19.87C6.9,54.37,0,47.89,0,38.37ZM33.4,11.25c0,2-.55,3.59-1.17,4.55l-.69-.41c.62-.96,1.03-2.27,1.03-4.14h.83Z"/>
      <path class="cls-2" d="M42.03,1.93l10.97-1.93v53.89h-10.97V1.93ZM66.8,24.43c0-4.41-1.59-6.35-4.9-6.35s-8.9,3.1-8.9,10.49l-.83.07c0-8.15,6.35-12.35,12.97-12.35,6.21,0,12.56,2.42,12.56,12.91v87.25h-10.9V24.43Z"/>
      <g>
        <path class="cls-2" d="M82.57,46.78c0-6.35,5.73-11.52,22.08-12.42v.83c-10.08,0-11.39,6.42-11.39,10.01s1.59,5.86,4.56,5.86c3.24,0,6.83-4.35,6.83-12.49h.76c0,8.9-4,15.8-13.94,15.8-5.11,0-8.9-2.55-8.9-7.59ZM104.65,44.72v-16.91c0-6.42-2.9-9.59-8.63-9.66-6.07-.07-9.25,4.49-9.25,9.11,0,3.1,1.11,5.11,2.35,6.83l-.55.55c-1.1-1.38-2.62-4-2.62-7.38,0-5.93,4.35-10.97,13.94-10.97,8.62,0,15.73,4.07,15.73,13.6v11.59c0,9.04,1.11,11.66,4.49,12.22l-.14.69c-9.87-.27-15.32-2.69-15.32-9.66Z"/>
        <path class="cls-2" d="M83.64,102.72v-23.12l10.9-1.93v27.6c0,5.87,2.76,8.14,6.07,8.14,3.04,0,7.38-2.55,7.38-10.08l.83-.07c0,9.25-6.35,12.35-12.63,12.35s-12.56-2.41-12.56-12.9ZM108,79.6l11.04-1.93v37.47h-11.04v-35.54Z"/>
      </g>
      <g>
        <path class="cls-2" d="M122.71,1.93l10.97-1.93v53.89h-10.97V1.93ZM126.64,34.64l26.5-17.87h1.31l-28.43,19.25.62-1.38ZM139.96,34.71c-1.38-3.45-2.83-4.07-4.69-4.07-1.72,0-4.76,2.27-6.49,3.45v-.62c2.76-2.21,7.11-5.11,13.66-5.11,3.38,0,6.49,1.73,8.35,6.07l8.28,19.46h-11.52l-7.59-19.19Z"/>
        <path class="cls-2" d="M127.26,103.34h.83c0,7.18,4.76,11.46,12.01,11.46s10.28-4.07,10.28-7.87c0-9.31-21.81-4.28-21.81-18.15,0-6.07,3.93-11.25,12.21-11.25,7.04,0,10.21,3.52,10.21,7.18h-.83c0-3.24-2.83-6.35-9.32-6.35-5.45,0-7.73,2.55-7.73,4.9,0,7.59,21.39,4.07,21.39,17.25,0,8.69-6.07,15.11-14.15,15.11s-13.11-4.62-13.11-12.28ZM151,84.71c0,1.45-.35,2.41-.83,3.18l-.76-.42c.35-.55.76-1.45.76-2.76h.83Z"/>
      </g>
      <g>
        <path class="cls-2" d="M160.16,1.93l10.97-1.93v53.89h-10.97V1.93ZM184.93,24.43c0-4.41-1.59-6.35-4.9-6.35s-8.9,3.1-8.9,10.49l-.83.07c0-8.15,6.35-12.35,12.97-12.35,6.21,0,12.56,2.42,12.56,12.91v24.7h-10.9v-29.47Z"/>
        <path class="cls-2" d="M160.29,102.72v-23.12l10.9-1.93v27.6c0,5.87,2.76,8.14,6.07,8.14,3.04,0,7.38-2.55,7.38-10.08l.83-.07c0,9.25-6.35,12.35-12.63,12.35s-12.56-2.41-12.56-12.9ZM184.65,79.6l11.04-1.93v37.47h-11.04v-35.54Z"/>
      </g>
      <g>
        <path class="cls-2" d="M201.53,18.36l10.97-1.93v37.47h-10.97V18.36ZM226.3,24.43c0-4.41-1.59-6.35-4.9-6.35s-8.9,3.1-8.9,10.49l-.83.07c0-8.15,6.35-12.35,12.97-12.35,6.21,0,12.56,2.42,12.56,12.91v24.7h-10.9v-29.47Z"/>
        <path class="cls-2" d="M199.77,79.6l10.97-1.93v84.93h-10.97v-83ZM209.84,100.24h.83c0,8.83,3.17,13.8,8.14,13.8,5.52,0,8.9-6.56,8.9-17.19,0-8.49-1.17-17.53-8.63-17.53-3.45,0-8.42,3.1-8.42,10.49l-.83.07c0-8.15,5.93-12.35,12.97-12.35,8.42,0,16.15,6.63,16.15,18.7s-9.25,19.39-17.67,19.39c-6.07,0-11.45-3.31-11.45-15.39Z"/>
      </g>
      <g>
        <path class="cls-2" d="M242.89,34.85c0-9.8,8.9-18.7,20.08-18.7s20.01,8.9,20.01,18.7c0,12.35-9.25,19.53-20.01,19.53s-20.08-7.17-20.08-19.53ZM271.53,34.85c0-7.45-1.52-17.87-8.56-17.87s-8.56,10.42-8.56,17.87c0,6.76,1.79,18.7,8.56,18.7s8.56-11.94,8.56-18.7Z"/>
        <path class="cls-2" d="M242.89,96.1c0-9.8,8.9-18.7,20.08-18.7s20.01,8.9,20.01,18.7c0,12.35-9.25,19.53-20.01,19.53s-20.08-7.17-20.08-19.53ZM271.53,96.1c0-7.45-1.52-17.87-8.56-17.87s-8.56,10.42-8.56,17.87c0,6.76,1.79,18.7,8.56,18.7s8.56-11.94,8.56-18.7Z"/>
      </g>
      <g>
        <path class="cls-2" d="M284.76,53.06l19.18-35.95,11.8.48-19.53,36.02-11.45-.55ZM284.76,53.06h31.12v.83h-31.12v-.83ZM286.21,16.77h29.54v.83h-29.54v-.83Z"/>
        <path class="cls-2" d="M282.73,78.02h12.01l11.66,26.64h-.9l11.25-26.64h1.17l-15.8,37.26h-2.97l-16.42-37.26Z"/>
      </g>
      <g>
        <path class="cls-2" d="M320.1,46.78c0-6.35,5.73-11.52,22.08-12.42v.83c-10.08,0-11.39,6.42-11.39,10.01s1.59,5.86,4.55,5.86c3.24,0,6.83-4.35,6.83-12.49h.76c0,8.9-4,15.8-13.94,15.8-5.11,0-8.9-2.55-8.9-7.59ZM342.18,44.72v-16.91c0-6.42-2.9-9.59-8.63-9.66-6.07-.07-9.25,4.49-9.25,9.11,0,3.1,1.1,5.11,2.35,6.83l-.55.55c-1.11-1.38-2.62-4-2.62-7.38,0-5.93,4.35-10.97,13.94-10.97,8.63,0,15.73,4.07,15.73,13.6v11.59c0,9.04,1.1,11.66,4.49,12.22l-.14.69c-9.87-.27-15.32-2.69-15.32-9.66Z"/>
        <path class="cls-2" d="M320.1,108.03c0-6.35,5.73-11.52,22.08-12.42v.83c-10.08,0-11.39,6.42-11.39,10.01s1.59,5.86,4.55,5.86c3.24,0,6.83-4.35,6.83-12.49h.76c0,8.9-4,15.8-13.94,15.8-5.11,0-8.9-2.55-8.9-7.59ZM342.18,105.96v-16.91c0-6.42-2.9-9.59-8.63-9.66-6.07-.07-9.25,4.49-9.25,9.11,0,3.1,1.1,5.11,2.35,6.83l-.55.55c-1.11-1.38-2.62-4-2.62-7.38,0-5.93,4.35-10.97,13.94-10.97,8.63,0,15.73,4.07,15.73,13.6v11.59c0,9.04,1.1,11.66,4.49,12.22l-.14.69c-9.87-.27-15.32-2.69-15.32-9.66Z"/>
      </g>
      <g>
        <path class="cls-1" d="M218.34,155.26c0-1.93.79-3.55,1.72-4.49l.31.28c-.86.86-1.62,2.35-1.62,4.21,0,3.62,2.83,6.45,7.59,6.49v.41c-5-.03-8-3.1-8-6.9ZM220.3,140.32c0-2.69,2.48-4.76,5.8-4.76s5.8,2.07,5.8,4.76-2.45,4.8-5.8,4.8-5.8-2.07-5.8-4.8ZM226.34,161.75c4.59,0,7.18-2.28,7.18-5.17s-1.52-3.93-7.11-5.93c-4.45-1.59-5.83-2.14-5.83-4.11,0-1.14.97-2.31,2-2.83l.35.31c-.93.35-1.55,1.17-1.55,1.79,0,.83.38,1.24,5.11,2.83,6.07,1.9,7.83,3.52,7.83,6.69,0,4.14-3.04,6.83-7.97,6.83v-.41ZM230.14,140.32c0-2.48-1.35-4.42-4.04-4.42s-4.04,1.93-4.04,4.42,1.35,4.45,4.04,4.45,4.04-1.93,4.04-4.45ZM228.76,136.56c.59-1.38,1.86-2.04,3.04-2.04.72,0,1.62.17,2.42,1.17l-.31.24c-.59-.76-1.45-1-2.1-1-1.1,0-2.17.59-2.69,1.9l-.34-.28Z"/>
        <path class="cls-1" d="M238.83,136.22l2-.59v18.73h-2v-18.15ZM240.35,143.12c.35-4.83,3.35-7.56,6.69-7.56.72,0,1.66.14,2.24.31l-.14.41c-.55-.17-1.45-.31-2.17-.31-3.21,0-6.07,2.97-6.17,7.31l-.45-.17Z"/>
        <path class="cls-1" d="M250.7,150.74c0-2.79,2.66-5.97,12.32-6.28v.41c-8,0-10.18,2.76-10.18,5.35,0,2.1,1.42,3.66,3.76,3.66,3.24,0,6.42-3,6.42-7.31h.41c0,3.59-2.42,8.04-8.11,8.04-2.59,0-4.62-1.41-4.62-3.86ZM263.02,149.12v-6.93c0-3.17-1.35-5.97-5.38-6.04-3.35-.07-5.66,2.1-5.66,5.04,0,1.45.62,2.72,1.31,3.38l-.31.28c-.79-.72-1.42-2.04-1.42-3.66,0-3.07,2.45-5.55,6.52-5.59,3.9,0,6.93,2.14,6.93,7v6.04c0,3.48.69,5.24,2.52,5.66l-.03.31c-2.48-.34-4.49-2.04-4.49-5.49Z"/>
        <path class="cls-1" d="M271.2,136.22l2-.59v26.29h-2v-25.7ZM272.75,146.57h.45c0,5.86,3.76,7.62,6.38,7.62,4.45,0,6.97-4.14,6.97-9.11s-2.28-8.97-6.9-8.97c-2.79,0-6.45,1.93-6.45,6.56l-.41.03c0-5.04,4.07-7.14,7.59-7.14,4.55,0,8.25,4.14,8.25,9.52s-4.04,9.52-9.04,9.52c-2.9,0-6.83-2-6.83-8.04Z"/>
        <path class="cls-1" d="M293.49,128.01l2-.59v26.94h-2v-26.36ZM306.98,143.57c0-4.66-.86-7.42-5.24-7.42-2.62,0-6.24,2-6.24,6.18l-.41.03c0-4.69,4.11-6.8,7.25-6.8,4.66,0,6.66,2.52,6.66,7.52v11.28h-2v-10.8Z"/>
        <path class="cls-1" d="M315.19,131.46c0-.83.66-1.48,1.48-1.48s1.48.66,1.48,1.48-.66,1.48-1.48,1.48-1.48-.66-1.48-1.48ZM315.68,136.39l2-.59v18.56h-2v-17.97Z"/>
        <path class="cls-1" d="M323.17,145.15c0-5.76,4.11-9.59,8.97-9.59,4.07,0,6.62,2.24,6.62,5.93,0,1.1-.34,2.14-.86,2.9l-.28-.24c.45-.69.72-1.66.72-2.66,0-3.55-2.48-5.45-5.73-5.45-4.31,0-7.35,3.35-7.35,9.11,0,5.11,2.66,8.97,7.56,8.97,3.45,0,6.07-2.04,7.18-5.59l.38.07c-1.14,3.69-3.76,6-8.04,6-5.14,0-9.18-3.76-9.18-9.45Z"/>
        <path class="cls-1" d="M352.08,145.43c0-6.04,4.31-9.87,8.69-9.87,3.17,0,7.11,2,7.11,8.04h-.45c0-5.86-3.76-7.62-6.66-7.62-3.55,0-6.62,3.38-6.62,9.25,0,4.38,2.28,8.9,7.21,8.8,2.93-.07,6.07-2.14,6.07-7.21l.41-.03c0,5.73-3.76,7.83-7.28,7.83-4.69,0-8.49-3.83-8.49-9.18ZM367.43,128.01l2-.59v26.94h-2v-26.36Z"/>
        <path class="cls-1" d="M374.3,145.36c0-5.83,4.38-9.8,9.73-9.8,4.69,0,7.42,2.86,6.28,6.35h-14.15v-.41h9.38c1.59,0,3.14-.28,3.14-1.97,0-2.07-1.69-3.55-4.73-3.55-4.42,0-7.45,2.97-7.45,8.73s2.59,9.42,7.52,9.42c3.07,0,5.9-1.9,6.69-5.59l.38.07c-.83,3.83-3.76,6.11-7.9,6.11-4.79,0-8.9-3.52-8.9-9.35Z"/>
        <path class="cls-1" d="M394.07,148.19h.41c0,3.42,2.24,6,5.93,6s5.49-2.24,5.49-4.59c0-5.97-11.11-2.45-11.11-9.25,0-2.52,1.93-4.83,5.49-4.83s5.07,1.69,5.07,3.93h-.41c0-2-1.38-3.52-4.66-3.52-3,0-4.55,1.52-4.55,3.42,0,5.35,11.04,2.28,11.04,8.93,0,3-1.93,6.31-6.31,6.31-3.97,0-6.38-2.69-6.38-6.42ZM405.35,139.46c0,.72-.17,1.21-.41,1.59l-.38-.21c.17-.28.38-.72.38-1.38h.41Z"/>
        <path class="cls-1" d="M411.77,131.46c0-.83.66-1.48,1.48-1.48s1.48.66,1.48,1.48-.66,1.48-1.48,1.48-1.48-.66-1.48-1.48ZM412.26,136.39l2-.59v18.56h-2v-17.97Z"/>
        <path class="cls-1" d="M419.16,155.26c0-1.93.79-3.55,1.72-4.49l.31.28c-.86.86-1.62,2.35-1.62,4.21,0,3.62,2.83,6.45,7.59,6.49v.41c-5-.03-8-3.1-8-6.9ZM421.13,140.32c0-2.69,2.48-4.76,5.8-4.76s5.8,2.07,5.8,4.76-2.45,4.8-5.8,4.8-5.8-2.07-5.8-4.8ZM427.16,161.75c4.59,0,7.18-2.28,7.18-5.17s-1.52-3.93-7.11-5.93c-4.45-1.59-5.83-2.14-5.83-4.11,0-1.14.97-2.31,2-2.83l.35.31c-.93.35-1.55,1.17-1.55,1.79,0,.83.38,1.24,5.11,2.83,6.07,1.9,7.83,3.52,7.83,6.69,0,4.14-3.04,6.83-7.97,6.83v-.41ZM430.96,140.32c0-2.48-1.35-4.42-4.04-4.42s-4.04,1.93-4.04,4.42,1.35,4.45,4.04,4.45,4.04-1.93,4.04-4.45ZM429.58,136.56c.59-1.38,1.86-2.04,3.04-2.04.72,0,1.62.17,2.42,1.17l-.31.24c-.59-.76-1.45-1-2.1-1-1.1,0-2.17.59-2.69,1.9l-.34-.28Z"/>
        <path class="cls-1" d="M439.65,136.22l2-.59v18.73h-2v-18.15ZM453.14,143.57c0-4.66-.86-7.42-5.24-7.42-2.62,0-6.24,2-6.24,6.18l-.41.03c0-4.69,4.11-6.8,7.25-6.8,4.66,0,6.66,2.52,6.66,7.52v11.28h-2v-10.8Z"/>
        <path class="cls-1" d="M459.8,145.36c0-5.83,4.38-9.8,9.73-9.8,4.69,0,7.42,2.86,6.28,6.35h-14.15v-.41h9.38c1.59,0,3.14-.28,3.14-1.97,0-2.07-1.69-3.55-4.73-3.55-4.42,0-7.45,2.97-7.45,8.73s2.59,9.42,7.52,9.42c3.07,0,5.9-1.9,6.69-5.59l.38.07c-.83,3.83-3.76,6.11-7.9,6.11-4.79,0-8.9-3.52-8.9-9.35Z"/>
        <path class="cls-1" d="M481.16,136.22l2-.59v18.73h-2v-18.15ZM482.68,143.12c.35-4.83,3.35-7.56,6.69-7.56.72,0,1.66.14,2.24.31l-.14.41c-.55-.17-1.45-.31-2.17-.31-3.21,0-6.07,2.97-6.17,7.31l-.45-.17Z"/>
      </g>
    </g>
  </g>
</svg>